<?xml version="1.0" encoding="UTF-8" standalone="no"?>
<svg width="230px" height="194px" viewBox="0 0 230 194" version="1.1" xmlns="http://www.w3.org/2000/svg" xmlns:xlink="http://www.w3.org/1999/xlink" xmlns:sketch="http://www.bohemiancoding.com/sketch/ns">
    <!-- Generator: Sketch 3.3.3 (12072) - http://www.bohemiancoding.com/sketch -->
    <title>TKCI Logo Master Copy</title>
    <desc>Created with Sketch.</desc>
    <defs></defs>
    <g id="Page-1" stroke="none" stroke-width="1" fill="none" fill-rule="evenodd" sketch:type="MSPage">
        <g id="TKCI-Logo-Master-Copy" sketch:type="MSLayerGroup">
            <path d="M42.01,12.543 L42.01,54.218 L114.193,12.543 L42.01,12.543" id="Fill-2" fill="#004C7F" sketch:type="MSShapeGroup"></path>
            <path d="M189.346,12.543 L117.163,12.543 L189.346,54.218 L189.346,12.543" id="Fill-3" fill="#004C7F" sketch:type="MSShapeGroup"></path>
            <path d="M40.01,10.543 L191.346,10.543 L191.346,63.132 L199.981,63.132 L199.981,0.484 L31.375,0.484 L31.375,63.132 L40.01,63.132 L40.01,10.543" id="Fill-4" fill="#004C7F" sketch:type="MSShapeGroup"></path>
            <path d="M42.01,181.941 L114.193,181.941 L42.01,140.265 L42.01,181.941" id="Fill-5" fill="#004C7F" sketch:type="MSShapeGroup"></path>
            <path d="M189.346,181.941 L189.346,140.265 L117.163,181.941 L189.346,181.941" id="Fill-6" fill="#004C7F" sketch:type="MSShapeGroup"></path>
            <g id="Group-10" transform="translate(0.000000, 72.000000)" fill="#004C7F" sketch:type="MSShapeGroup">
                <path d="M191.346,111.941 L40.01,111.941 L40.01,59.351 L31.375,59.351 L31.375,122 L199.981,122 L199.981,59.351 L191.346,59.351 L191.346,111.941" id="Fill-7"></path>
                <path d="M8.115,8.17 L0,8.17 L0,0.499 L23.821,0.499 L23.821,8.17 L15.746,8.17 L15.746,51.088 L8.115,51.088 L8.115,8.17" id="Fill-9"></path>
            </g>
            <path d="M31.375,72.447 L39.957,72.447 L39.957,123.037 L31.375,123.037 L31.375,72.447 Z" id="Fill-11" fill="#004C7F" sketch:type="MSShapeGroup"></path>
            <path d="M68.616,123.088 L47.823,123.088 L47.823,72.499 L55.454,72.499 L55.454,115.498 L68.616,115.498 L68.616,123.088" id="Fill-12" fill="#004C7F" sketch:type="MSShapeGroup"></path>
            <path d="M75.569,123.088 L75.569,72.458 L97.291,72.458 L97.291,80.13 L83.2,80.13 L83.2,93.937 L93.496,93.937 L93.496,101.609 L83.2,101.609 L83.2,115.418 L97.291,115.418 L97.291,123.088 L75.569,123.088" id="Fill-13" fill="#004C7F" sketch:type="MSShapeGroup"></path>
            <path d="M180.395,59.878 L115.678,22.513 L50.961,59.878 L50.961,63.132 L180.395,63.132 L180.395,59.878" id="Fill-14" fill="#968C7F" sketch:type="MSShapeGroup"></path>
            <path d="M50.961,134.606 L115.678,171.97 L180.395,134.606 L180.395,131.351 L50.961,131.351 L50.961,134.606" id="Fill-15" fill="#968C7F" sketch:type="MSShapeGroup"></path>
            <path d="M118.83,107.04 L118.83,123.088 L111.199,123.088 L111.199,72.458 L118.83,72.458 L118.83,90.506 L128.156,72.458 L136.292,72.458 L125.847,93.109 L138.096,123.088 L129.125,123.088 L121.113,102.533 L118.83,107.04" id="Fill-16" fill="#968C7F" sketch:type="MSShapeGroup"></path>
            <path d="M153.926,101.891 L143.711,72.458 L152.109,72.458 L157.762,90.627 L163.374,72.458 L171.813,72.458 L161.557,101.891 L161.557,123.088 L153.926,123.088 L153.926,101.891" id="Fill-17" fill="#968C7F" sketch:type="MSShapeGroup"></path>
            <path d="M199.878,123.088 L179.613,123.088 L179.613,72.499 L187.051,72.499 L187.051,115.498 L199.878,115.498 L199.878,123.088" id="Fill-18" fill="#968C7F" sketch:type="MSShapeGroup"></path>
            <path d="M207.36,123.088 L207.36,72.458 L229.082,72.458 L229.082,80.13 L214.991,80.13 L214.991,93.937 L225.286,93.937 L225.286,101.609 L214.991,101.609 L214.991,115.418 L229.082,115.418 L229.082,123.088 L207.36,123.088" id="Fill-19" fill="#968C7F" sketch:type="MSShapeGroup"></path>
            <path d="M77.81,140.572 C77.81,140.825 77.78,141.069 77.723,141.306 C77.665,141.545 77.561,141.754 77.409,141.933 C77.259,142.113 77.048,142.257 76.777,142.365 C76.508,142.473 76.164,142.527 75.746,142.527 C75.155,142.527 74.705,142.396 74.395,142.133 C74.086,141.871 73.932,141.49 73.932,140.994 C73.932,140.763 73.971,140.546 74.051,140.34 C74.13,140.134 74.241,139.953 74.385,139.795 C74.529,139.636 74.705,139.512 74.914,139.422 C75.123,139.332 75.357,139.287 75.616,139.287 L77.81,139.287 L77.81,140.572 L77.81,140.572 Z M78.846,138.39 L78.846,137.03 L78.76,137.03 L77.766,138.39 L75.411,138.39 C74.958,138.39 74.628,138.298 74.423,138.115 C74.218,137.931 74.115,137.685 74.115,137.375 C74.115,137.246 74.139,137.12 74.186,136.997 C74.232,136.875 74.308,136.765 74.412,136.668 C74.517,136.57 74.649,136.491 74.812,136.43 C74.974,136.369 75.174,136.338 75.411,136.338 C75.577,136.338 75.746,136.351 75.919,136.376 C76.092,136.401 76.271,136.443 76.459,136.501 C76.538,136.378 76.596,136.254 76.632,136.128 C76.668,136.002 76.689,135.856 76.696,135.69 C76.444,135.604 76.203,135.547 75.973,135.517 C75.742,135.489 75.533,135.474 75.347,135.474 C75.029,135.474 74.729,135.512 74.444,135.588 C74.16,135.663 73.913,135.778 73.705,135.933 C73.496,136.088 73.33,136.283 73.208,136.516 C73.085,136.751 73.024,137.026 73.024,137.342 C73.024,137.775 73.131,138.119 73.343,138.375 C73.556,138.63 73.816,138.826 74.126,138.963 C73.932,139.043 73.75,139.156 73.58,139.303 C73.411,139.451 73.264,139.624 73.138,139.822 C73.012,140.02 72.914,140.234 72.846,140.464 C72.777,140.695 72.743,140.928 72.743,141.167 C72.743,141.584 72.822,141.94 72.981,142.236 C73.14,142.531 73.354,142.772 73.624,142.96 C73.894,143.147 74.205,143.284 74.558,143.37 C74.911,143.456 75.278,143.5 75.66,143.5 C76.135,143.5 76.568,143.445 76.961,143.338 C77.354,143.229 77.69,143.066 77.971,142.846 C78.252,142.627 78.468,142.351 78.619,142.019 C78.771,141.688 78.846,141.303 78.846,140.864 L78.846,139.265 L80.25,139.265 C80.265,139.193 80.275,139.12 80.282,139.044 C80.29,138.968 80.293,138.891 80.293,138.812 C80.293,138.653 80.279,138.513 80.25,138.39 L78.846,138.39 L78.846,138.39 Z" id="Fill-20" fill="#FFFFFF" sketch:type="MSShapeGroup"></path>
            <path d="M89.345,142.236 C89.129,142.33 88.898,142.401 88.653,142.452 C88.409,142.503 88.136,142.527 87.833,142.527 C87.444,142.527 87.093,142.466 86.779,142.343 C86.467,142.221 86.198,142.038 85.975,141.793 C85.752,141.548 85.579,141.238 85.457,140.864 C85.334,140.49 85.273,140.047 85.273,139.536 C85.273,138.535 85.49,137.767 85.927,137.235 C86.362,136.702 86.973,136.435 87.757,136.435 C87.937,136.435 88.098,136.441 88.238,136.452 C88.378,136.463 88.506,136.478 88.621,136.501 C88.736,136.522 88.845,136.547 88.945,136.576 C89.046,136.605 89.15,136.637 89.259,136.673 C89.323,136.514 89.379,136.365 89.426,136.225 C89.473,136.085 89.503,135.931 89.518,135.765 C89.287,135.686 89.024,135.618 88.729,135.56 C88.434,135.503 88.081,135.474 87.671,135.474 C87.116,135.474 86.616,135.57 86.17,135.76 C85.723,135.951 85.345,136.223 85.035,136.576 C84.726,136.928 84.488,137.355 84.322,137.856 C84.156,138.356 84.074,138.916 84.074,139.536 C84.074,140.147 84.156,140.698 84.322,141.188 C84.488,141.677 84.726,142.093 85.035,142.435 C85.345,142.778 85.725,143.041 86.175,143.224 C86.625,143.408 87.131,143.5 87.692,143.5 C88.06,143.5 88.401,143.47 88.719,143.413 C89.035,143.355 89.345,143.261 89.647,143.132 C89.605,142.844 89.503,142.546 89.345,142.236" id="Fill-21" fill="#FFFFFF" sketch:type="MSShapeGroup"></path>
            <path d="M92.089,138.223 C92.175,137.845 92.305,137.525 92.478,137.261 C92.65,136.999 92.868,136.797 93.131,136.657 C93.394,136.516 93.705,136.446 94.065,136.446 C94.425,136.446 94.736,136.516 95,136.657 C95.263,136.797 95.48,136.999 95.653,137.261 C95.826,137.525 95.955,137.845 96.042,138.223 C96.128,138.601 96.172,139.024 96.172,139.492 C96.172,139.967 96.128,140.392 96.042,140.766 C95.955,141.141 95.826,141.462 95.653,141.728 C95.48,141.995 95.263,142.198 95,142.338 C94.736,142.479 94.425,142.548 94.065,142.548 C93.705,142.548 93.394,142.479 93.131,142.338 C92.868,142.198 92.65,141.995 92.478,141.728 C92.305,141.462 92.175,141.141 92.089,140.766 C92.002,140.392 91.959,139.967 91.959,139.492 C91.959,139.024 92.002,138.601 92.089,138.223 L92.089,138.223 Z M91.586,142.371 C91.856,142.727 92.196,143.005 92.607,143.203 C93.018,143.4 93.504,143.5 94.065,143.5 C94.627,143.5 95.113,143.4 95.523,143.203 C95.934,143.005 96.274,142.727 96.544,142.371 C96.814,142.014 97.014,141.591 97.144,141.101 C97.273,140.612 97.338,140.076 97.338,139.492 C97.338,138.909 97.273,138.373 97.144,137.882 C97.014,137.393 96.814,136.97 96.544,136.614 C96.274,136.257 95.934,135.978 95.523,135.777 C95.113,135.575 94.627,135.474 94.065,135.474 C93.504,135.474 93.018,135.575 92.607,135.777 C92.196,135.978 91.856,136.257 91.586,136.614 C91.316,136.97 91.114,137.393 90.981,137.882 C90.849,138.373 90.781,138.909 90.781,139.492 C90.781,140.076 90.849,140.612 90.981,141.101 C91.114,141.591 91.316,142.014 91.586,142.371 L91.586,142.371 Z" id="Fill-22" fill="#FFFFFF" sketch:type="MSShapeGroup"></path>
            <path d="M105.288,135.56 C105.187,135.56 105.082,135.564 104.975,135.571 C104.866,135.579 104.776,135.589 104.704,135.604 L102.685,140.464 L100.676,135.604 C100.596,135.589 100.497,135.579 100.379,135.571 C100.26,135.564 100.149,135.56 100.049,135.56 C99.948,135.56 99.842,135.564 99.73,135.571 C99.619,135.579 99.52,135.589 99.434,135.604 L99.088,143.37 C99.167,143.384 99.25,143.395 99.336,143.402 C99.423,143.409 99.513,143.413 99.606,143.413 C99.686,143.413 99.769,143.409 99.854,143.402 C99.941,143.395 100.023,143.384 100.104,143.37 L100.352,137.299 L102.188,141.76 C102.324,141.782 102.461,141.793 102.598,141.793 C102.749,141.793 102.896,141.782 103.041,141.76 L104.942,137.332 L105.19,143.37 C105.27,143.384 105.354,143.395 105.444,143.402 C105.534,143.409 105.626,143.413 105.72,143.413 C105.813,143.413 105.905,143.409 105.995,143.402 C106.085,143.395 106.173,143.384 106.26,143.37 L105.893,135.604 C105.813,135.589 105.716,135.579 105.601,135.571 C105.485,135.564 105.381,135.56 105.288,135.56" id="Fill-23" fill="#FFFFFF" sketch:type="MSShapeGroup"></path>
            <path d="M109.402,136.457 C109.604,136.435 109.838,136.424 110.104,136.424 C110.364,136.424 110.605,136.45 110.828,136.501 C111.052,136.55 111.242,136.637 111.4,136.759 C111.56,136.881 111.684,137.044 111.773,137.246 C111.863,137.447 111.908,137.696 111.908,137.991 C111.908,138.33 111.856,138.605 111.752,138.817 C111.647,139.03 111.509,139.197 111.336,139.319 C111.163,139.442 110.967,139.526 110.747,139.573 C110.527,139.62 110.307,139.643 110.083,139.643 C109.917,139.643 109.791,139.64 109.705,139.632 C109.618,139.626 109.518,139.615 109.402,139.6 L109.402,136.457 L109.402,136.457 Z M108.685,135.549 C108.536,135.564 108.409,135.579 108.301,135.593 L108.301,143.37 C108.388,143.384 108.479,143.393 108.576,143.397 C108.674,143.4 108.766,143.402 108.852,143.402 C109.046,143.402 109.229,143.391 109.402,143.37 L109.402,140.561 C109.525,140.576 109.639,140.585 109.743,140.588 C109.847,140.592 109.968,140.593 110.104,140.593 C110.472,140.593 110.832,140.552 111.185,140.469 C111.537,140.387 111.853,140.245 112.13,140.043 C112.407,139.841 112.63,139.573 112.8,139.238 C112.969,138.904 113.054,138.484 113.054,137.98 C113.054,137.498 112.974,137.096 112.815,136.776 C112.657,136.456 112.443,136.198 112.173,136.004 C111.903,135.809 111.59,135.672 111.233,135.593 C110.877,135.513 110.501,135.474 110.104,135.474 C109.953,135.474 109.797,135.478 109.635,135.485 C109.473,135.492 109.311,135.501 109.148,135.512 C108.986,135.523 108.832,135.536 108.685,135.549 L108.685,135.549 Z" id="Fill-24" fill="#FFFFFF" sketch:type="MSShapeGroup"></path>
            <path d="M116.478,136.651 L117.665,140.616 L115.3,140.616 L116.478,136.651 L116.478,136.651 Z M113.917,143.413 C114.011,143.413 114.104,143.409 114.198,143.402 C114.292,143.395 114.386,143.384 114.479,143.37 L115.008,141.577 L117.957,141.577 L118.497,143.37 C118.583,143.384 118.675,143.395 118.772,143.402 C118.87,143.409 118.965,143.413 119.059,143.413 C119.159,143.413 119.264,143.409 119.372,143.402 C119.479,143.395 119.577,143.384 119.663,143.37 L117.146,135.604 C117.046,135.589 116.941,135.579 116.834,135.571 C116.726,135.564 116.621,135.56 116.521,135.56 C116.405,135.56 116.294,135.564 116.186,135.571 C116.077,135.579 115.977,135.589 115.883,135.604 L113.355,143.37 C113.435,143.384 113.523,143.395 113.62,143.402 C113.718,143.409 113.816,143.413 113.917,143.413 L113.917,143.413 Z" id="Fill-25" fill="#FFFFFF" sketch:type="MSShapeGroup"></path>
            <path d="M126.015,135.56 C125.921,135.56 125.827,135.564 125.733,135.571 C125.64,135.579 125.55,135.589 125.464,135.604 L125.464,141.436 L122.083,135.604 C122.004,135.589 121.919,135.579 121.829,135.571 C121.739,135.564 121.654,135.56 121.575,135.56 C121.496,135.56 121.411,135.564 121.321,135.571 C121.231,135.579 121.146,135.589 121.067,135.604 L121.067,143.37 C121.14,143.384 121.221,143.395 121.311,143.402 C121.4,143.409 121.492,143.413 121.586,143.413 C121.672,143.413 121.761,143.409 121.851,143.402 C121.94,143.395 122.025,143.384 122.104,143.37 L122.104,137.57 L125.496,143.37 C125.575,143.384 125.659,143.395 125.75,143.402 C125.84,143.409 125.924,143.413 126.004,143.413 C126.083,143.413 126.167,143.409 126.258,143.402 C126.348,143.395 126.432,143.384 126.512,143.37 L126.512,135.604 C126.432,135.589 126.35,135.579 126.263,135.571 C126.177,135.564 126.094,135.56 126.015,135.56" id="Fill-26" fill="#FFFFFF" sketch:type="MSShapeGroup"></path>
            <path d="M132.765,135.604 L130.972,139.46 L129.157,135.604 C129.071,135.589 128.972,135.579 128.86,135.571 C128.749,135.564 128.646,135.56 128.553,135.56 C128.444,135.56 128.337,135.564 128.229,135.571 C128.12,135.579 128.02,135.589 127.926,135.604 L130.389,140.529 L130.389,143.37 C130.468,143.384 130.557,143.395 130.653,143.402 C130.751,143.409 130.846,143.413 130.939,143.413 C131.033,143.413 131.127,143.409 131.221,143.402 C131.314,143.395 131.407,143.384 131.501,143.37 L131.501,140.529 L133.932,135.604 C133.838,135.589 133.74,135.579 133.64,135.571 C133.539,135.564 133.438,135.56 133.338,135.56 C133.236,135.56 133.14,135.564 133.046,135.571 C132.952,135.579 132.858,135.589 132.765,135.604" id="Fill-27" fill="#FFFFFF" sketch:type="MSShapeGroup"></path>
            <path d="M133.866,144.617 C133.953,144.621 134.039,144.623 134.126,144.623 C134.205,144.623 134.289,144.621 134.38,144.617 C134.47,144.614 134.558,144.605 134.645,144.59 L135.325,142.181 C135.123,142.146 134.939,142.128 134.773,142.128 C134.694,142.128 134.61,142.133 134.521,142.144 C134.43,142.155 134.342,142.168 134.256,142.181 L133.618,144.59 C133.697,144.605 133.78,144.614 133.866,144.617" id="Fill-28" fill="#FFFFFF" sketch:type="MSShapeGroup"></path>
            <path d="M140.023,135.571 C139.93,135.579 139.84,135.589 139.754,135.604 L139.754,143.37 C139.833,143.384 139.921,143.395 140.019,143.402 C140.115,143.409 140.211,143.413 140.305,143.413 C140.405,143.413 140.5,143.409 140.591,143.402 C140.681,143.395 140.769,143.384 140.855,143.37 L140.855,135.604 C140.769,135.589 140.679,135.579 140.585,135.571 C140.491,135.564 140.397,135.56 140.305,135.56 C140.211,135.56 140.117,135.564 140.023,135.571" id="Fill-29" fill="#FFFFFF" sketch:type="MSShapeGroup"></path>
            <path d="M147.974,135.56 C147.88,135.56 147.786,135.564 147.692,135.571 C147.599,135.579 147.509,135.589 147.423,135.604 L147.423,141.436 L144.042,135.604 C143.963,135.589 143.878,135.579 143.788,135.571 C143.698,135.564 143.613,135.56 143.534,135.56 C143.455,135.56 143.37,135.564 143.28,135.571 C143.19,135.579 143.105,135.589 143.026,135.604 L143.026,143.37 C143.099,143.384 143.18,143.395 143.27,143.402 C143.359,143.409 143.451,143.413 143.545,143.413 C143.631,143.413 143.72,143.409 143.81,143.402 C143.899,143.395 143.984,143.384 144.063,143.37 L144.063,137.57 L147.455,143.37 C147.534,143.384 147.618,143.395 147.709,143.402 C147.799,143.409 147.883,143.413 147.963,143.413 C148.042,143.413 148.126,143.409 148.217,143.402 C148.307,143.395 148.391,143.384 148.471,143.37 L148.471,135.604 C148.391,135.589 148.309,135.579 148.222,135.571 C148.136,135.564 148.053,135.56 147.974,135.56" id="Fill-30" fill="#FFFFFF" sketch:type="MSShapeGroup"></path>
            <path d="M154.907,142.452 C154.663,142.503 154.39,142.527 154.087,142.527 C153.698,142.527 153.347,142.466 153.033,142.343 C152.721,142.221 152.452,142.038 152.229,141.793 C152.006,141.548 151.833,141.238 151.711,140.864 C151.588,140.49 151.527,140.047 151.527,139.536 C151.527,138.535 151.744,137.767 152.181,137.235 C152.616,136.702 153.227,136.435 154.011,136.435 C154.191,136.435 154.352,136.441 154.492,136.452 C154.632,136.463 154.76,136.478 154.875,136.501 C154.99,136.522 155.099,136.547 155.199,136.576 C155.3,136.605 155.404,136.637 155.513,136.673 C155.577,136.514 155.633,136.365 155.68,136.225 C155.727,136.085 155.757,135.931 155.771,135.765 C155.541,135.686 155.278,135.618 154.983,135.56 C154.688,135.503 154.335,135.474 153.925,135.474 C153.37,135.474 152.87,135.57 152.424,135.76 C151.977,135.951 151.599,136.223 151.289,136.576 C150.979,136.928 150.742,137.355 150.576,137.856 C150.41,138.356 150.328,138.916 150.328,139.536 C150.328,140.147 150.41,140.698 150.576,141.188 C150.742,141.677 150.979,142.093 151.289,142.435 C151.599,142.778 151.979,143.041 152.429,143.224 C152.879,143.408 153.385,143.5 153.946,143.5 C154.313,143.5 154.655,143.47 154.973,143.413 C155.289,143.355 155.599,143.261 155.901,143.132 C155.858,142.844 155.757,142.546 155.599,142.236 C155.383,142.33 155.152,142.401 154.907,142.452" id="Fill-31" fill="#FFFFFF" sketch:type="MSShapeGroup"></path>
            <path d="M158.537,142.16 C158.437,142.146 158.335,142.134 158.234,142.128 C158.134,142.121 158.033,142.117 157.932,142.117 C157.831,142.117 157.732,142.121 157.635,142.128 C157.538,142.134 157.438,142.146 157.338,142.16 C157.323,142.261 157.312,142.364 157.3,142.467 C157.289,142.572 157.284,142.675 157.284,142.776 C157.284,142.877 157.289,142.975 157.3,143.073 C157.312,143.17 157.323,143.269 157.338,143.37 C157.438,143.384 157.54,143.395 157.641,143.402 C157.741,143.409 157.842,143.413 157.943,143.413 C158.044,143.413 158.143,143.409 158.24,143.402 C158.337,143.395 158.437,143.384 158.537,143.37 C158.552,143.269 158.564,143.169 158.575,143.067 C158.586,142.966 158.591,142.866 158.591,142.765 C158.591,142.664 158.586,142.563 158.575,142.463 C158.564,142.362 158.552,142.261 158.537,142.16" id="Fill-32" fill="#FFFFFF" sketch:type="MSShapeGroup"></path>
            <path d="M89.22,148.914 L142.136,148.914 L142.136,149.602 L89.22,149.602 L89.22,148.914 Z" id="Fill-33" fill="#FFFFFF" sketch:type="MSShapeGroup"></path>
            <path d="M97.144,153.782 L134.212,153.782 L134.212,154.47 L97.144,154.47 L97.144,153.782 Z" id="Fill-34" fill="#FFFFFF" sketch:type="MSShapeGroup"></path>
            <path d="M102.448,158.639 L128.907,158.639 L128.907,159.328 L102.448,159.328 L102.448,158.639 Z" id="Fill-35" fill="#FFFFFF" sketch:type="MSShapeGroup"></path>
            <path d="M95.353,57.464 C95.356,57.376 95.358,57.292 95.358,57.211 C95.358,57.035 95.347,56.874 95.325,56.728 L92.014,56.728 L92.014,54.022 L94.588,54.022 C94.603,53.948 94.614,53.867 94.621,53.779 C94.628,53.691 94.632,53.607 94.632,53.526 C94.632,53.445 94.628,53.363 94.621,53.278 C94.614,53.194 94.603,53.115 94.588,53.042 L92.014,53.042 L92.014,50.777 L95.237,50.777 C95.252,50.703 95.261,50.622 95.265,50.534 C95.269,50.446 95.27,50.362 95.27,50.281 C95.27,50.106 95.259,49.943 95.237,49.797 L90.892,49.797 L90.892,57.706 L95.325,57.706 C95.34,57.633 95.349,57.552 95.353,57.464" id="Fill-36" fill="#FFFFFF" sketch:type="MSShapeGroup"></path>
            <path d="M97.509,57.75 C97.666,57.779 97.837,57.802 98.02,57.816 C98.204,57.831 98.409,57.838 98.636,57.838 C99.575,57.838 100.304,57.62 100.825,57.184 C101.346,56.747 101.606,56.151 101.606,55.397 C101.606,55.081 101.564,54.806 101.479,54.571 C101.396,54.337 101.272,54.133 101.111,53.961 C100.95,53.788 100.755,53.638 100.528,53.51 C100.301,53.381 100.041,53.259 99.747,53.141 L99.131,52.9 C98.977,52.841 98.831,52.775 98.691,52.701 C98.552,52.628 98.431,52.545 98.328,52.453 C98.226,52.362 98.143,52.256 98.081,52.135 C98.019,52.014 97.987,51.876 97.987,51.722 C97.987,51.348 98.112,51.068 98.361,50.881 C98.61,50.693 98.966,50.6 99.428,50.6 C99.758,50.6 100.053,50.63 100.313,50.689 C100.574,50.747 100.803,50.813 101.001,50.886 C101.126,50.585 101.207,50.281 101.243,49.973 C101.001,49.885 100.723,49.812 100.407,49.753 C100.092,49.694 99.758,49.665 99.406,49.665 C98.585,49.665 97.947,49.854 97.492,50.232 C97.038,50.609 96.81,51.132 96.81,51.799 C96.81,52.078 96.847,52.318 96.92,52.52 C96.994,52.722 97.094,52.9 97.223,53.053 C97.351,53.207 97.503,53.337 97.679,53.443 C97.855,53.55 98.049,53.648 98.262,53.736 L98.889,53.988 C99.139,54.091 99.357,54.187 99.544,54.275 C99.731,54.362 99.886,54.459 100.011,54.566 C100.136,54.672 100.229,54.799 100.292,54.945 C100.354,55.092 100.385,55.268 100.385,55.473 C100.385,55.891 100.237,56.223 99.94,56.469 C99.643,56.714 99.193,56.837 98.592,56.837 C98.211,56.837 97.888,56.804 97.624,56.738 C97.36,56.672 97.107,56.595 96.865,56.507 C96.807,56.668 96.752,56.833 96.7,57.002 C96.649,57.171 96.616,57.336 96.601,57.497 C96.755,57.549 96.905,57.596 97.052,57.64 C97.199,57.684 97.351,57.721 97.509,57.75" id="Fill-37" fill="#FFFFFF" sketch:type="MSShapeGroup"></path>
            <path d="M102.64,50.777 L104.697,50.777 L104.697,57.706 C104.873,57.729 105.064,57.739 105.269,57.739 C105.467,57.739 105.65,57.729 105.819,57.706 L105.819,50.777 L107.876,50.777 C107.891,50.703 107.902,50.62 107.909,50.528 C107.917,50.437 107.92,50.351 107.92,50.271 C107.92,50.19 107.917,50.108 107.909,50.028 C107.902,49.947 107.891,49.87 107.876,49.797 L102.64,49.797 C102.625,49.87 102.614,49.949 102.607,50.033 C102.6,50.118 102.596,50.2 102.596,50.281 C102.596,50.362 102.6,50.446 102.607,50.534 C102.614,50.622 102.625,50.703 102.64,50.777" id="Fill-38" fill="#FFFFFF" sketch:type="MSShapeGroup"></path>
            <path d="M108.338,57.706 C108.441,57.721 108.544,57.732 108.646,57.739 C108.749,57.746 108.852,57.75 108.955,57.75 C109.057,57.75 109.158,57.746 109.257,57.739 C109.356,57.732 109.457,57.721 109.56,57.706 C109.574,57.604 109.587,57.501 109.598,57.399 C109.609,57.296 109.615,57.193 109.615,57.09 C109.615,56.987 109.609,56.885 109.598,56.782 C109.587,56.68 109.574,56.577 109.56,56.474 C109.457,56.459 109.354,56.448 109.251,56.441 C109.149,56.434 109.046,56.43 108.943,56.43 C108.841,56.43 108.74,56.434 108.641,56.441 C108.542,56.448 108.441,56.459 108.338,56.474 C108.324,56.577 108.311,56.682 108.3,56.787 C108.289,56.894 108.284,56.998 108.284,57.101 C108.284,57.204 108.289,57.305 108.3,57.403 C108.311,57.503 108.324,57.604 108.338,57.706" id="Fill-39" fill="#FFFFFF" sketch:type="MSShapeGroup"></path>
            <path d="M117.177,53.813 C117.056,54.003 116.912,54.199 116.748,54.4 C116.582,54.603 116.404,54.816 116.215,55.044 L114.058,57.564 L114.124,57.706 L119.02,57.706 C119.033,57.633 119.045,57.556 119.053,57.475 C119.06,57.395 119.063,57.314 119.063,57.233 C119.063,57.146 119.06,57.061 119.053,56.981 C119.045,56.9 119.033,56.818 119.02,56.738 L116.104,56.738 L117.16,55.539 C117.658,54.975 118.044,54.461 118.314,53.999 C118.586,53.537 118.723,53.061 118.723,52.569 C118.723,52.217 118.662,51.911 118.541,51.65 C118.42,51.391 118.247,51.176 118.023,51.007 C117.8,50.839 117.534,50.712 117.227,50.628 C116.918,50.543 116.577,50.501 116.203,50.501 C115.785,50.501 115.42,50.549 115.109,50.645 C114.797,50.739 114.513,50.842 114.256,50.952 C114.271,51.113 114.306,51.272 114.361,51.425 C114.416,51.579 114.472,51.73 114.531,51.876 C114.758,51.774 114.993,51.682 115.235,51.601 C115.477,51.521 115.773,51.481 116.126,51.481 C116.588,51.481 116.943,51.583 117.193,51.788 C117.442,51.993 117.567,52.29 117.567,52.679 C117.567,52.877 117.532,53.068 117.463,53.251 C117.393,53.435 117.298,53.621 117.177,53.813" id="Fill-40" fill="#FFFFFF" sketch:type="MSShapeGroup"></path>
            <path d="M122.429,52.14 C122.715,51.693 123.111,51.469 123.617,51.469 C124.123,51.469 124.515,51.693 124.793,52.14 C125.072,52.588 125.211,53.266 125.211,54.175 C125.211,55.084 125.072,55.761 124.793,56.204 C124.515,56.649 124.123,56.87 123.617,56.87 C123.111,56.87 122.715,56.649 122.429,56.204 C122.143,55.761 122,55.084 122,54.175 C122,53.266 122.143,52.588 122.429,52.14 L122.429,52.14 Z M121.532,56.804 C121.764,57.127 122.051,57.38 122.396,57.564 C122.74,57.746 123.144,57.838 123.605,57.838 C124.068,57.838 124.475,57.746 124.826,57.564 C125.179,57.38 125.471,57.127 125.701,56.804 C125.932,56.482 126.106,56.095 126.224,55.644 C126.341,55.193 126.4,54.703 126.4,54.175 C126.4,53.64 126.343,53.149 126.229,52.701 C126.115,52.254 125.943,51.867 125.713,51.541 C125.48,51.214 125.191,50.959 124.844,50.777 C124.494,50.593 124.09,50.501 123.627,50.501 C123.166,50.501 122.76,50.593 122.412,50.777 C122.064,50.959 121.773,51.214 121.543,51.541 C121.313,51.867 121.138,52.254 121.021,52.701 C120.903,53.149 120.845,53.64 120.845,54.175 C120.845,54.703 120.901,55.193 121.016,55.644 C121.129,56.095 121.301,56.482 121.532,56.804 L121.532,56.804 Z" id="Fill-41" fill="#FFFFFF" sketch:type="MSShapeGroup"></path>
            <path d="M129.305,52.14 C129.59,51.693 129.986,51.469 130.492,51.469 C130.998,51.469 131.391,51.693 131.669,52.14 C131.947,52.588 132.087,53.266 132.087,54.175 C132.087,55.084 131.947,55.761 131.669,56.204 C131.391,56.649 130.998,56.87 130.492,56.87 C129.986,56.87 129.59,56.649 129.305,56.204 C129.018,55.761 128.875,55.084 128.875,54.175 C128.875,53.266 129.018,52.588 129.305,52.14 L129.305,52.14 Z M128.408,56.804 C128.639,57.127 128.926,57.38 129.271,57.564 C129.615,57.746 130.02,57.838 130.48,57.838 C130.943,57.838 131.35,57.746 131.702,57.564 C132.055,57.38 132.346,57.127 132.576,56.804 C132.808,56.482 132.982,56.095 133.1,55.644 C133.217,55.193 133.275,54.703 133.275,54.175 C133.275,53.64 133.219,53.149 133.104,52.701 C132.99,52.254 132.818,51.867 132.588,51.541 C132.356,51.214 132.066,50.959 131.719,50.777 C131.37,50.593 130.965,50.501 130.503,50.501 C130.041,50.501 129.636,50.593 129.287,50.777 C128.939,50.959 128.649,51.214 128.418,51.541 C128.188,51.867 128.014,52.254 127.896,52.701 C127.779,53.149 127.721,53.64 127.721,54.175 C127.721,54.703 127.777,55.193 127.891,55.644 C128.004,56.095 128.177,56.482 128.408,56.804 L128.408,56.804 Z" id="Fill-42" fill="#FFFFFF" sketch:type="MSShapeGroup"></path>
            <path d="M138.258,56.848 L138.258,58.356 C138.346,58.37 138.436,58.379 138.527,58.383 C138.619,58.386 138.709,58.388 138.797,58.388 C138.885,58.388 138.971,58.386 139.056,58.383 C139.14,58.379 139.23,58.37 139.325,58.356 L139.325,56.848 L140.337,56.848 C140.352,56.775 140.363,56.696 140.37,56.611 C140.377,56.527 140.381,56.445 140.381,56.364 C140.381,56.283 140.377,56.203 140.37,56.122 C140.363,56.041 140.352,55.961 140.337,55.88 L139.325,55.88 L139.325,53.79 C139.237,53.775 139.147,53.765 139.056,53.757 C138.964,53.75 138.871,53.746 138.775,53.746 C138.694,53.746 138.61,53.75 138.521,53.757 C138.434,53.765 138.346,53.775 138.258,53.79 L138.258,55.88 L136.036,55.88 L138.6,50.777 C138.445,50.674 138.285,50.591 138.121,50.528 C137.955,50.467 137.797,50.428 137.643,50.413 L134.419,56.728 L134.508,56.848 L138.258,56.848" id="Fill-43" fill="#FFFFFF" sketch:type="MSShapeGroup"></path>
            <path d="M72.803,53.402 L86.914,53.402 L86.914,54.101 L72.803,54.101 L72.803,53.402 Z" id="Fill-44" fill="#FFFFFF" sketch:type="MSShapeGroup"></path>
            <path d="M144.168,53.402 L158.279,53.402 L158.279,54.101 L144.168,54.101 L144.168,53.402 Z" id="Fill-45" fill="#FFFFFF" sketch:type="MSShapeGroup"></path>
        </g>
    </g>
</svg>