<?xml version="1.0" encoding="UTF-8" standalone="no"?>
<svg width="12px" height="12px" viewBox="0 0 12 12" version="1.1" xmlns="http://www.w3.org/2000/svg" xmlns:xlink="http://www.w3.org/1999/xlink" xmlns:sketch="http://www.bohemiancoding.com/sketch/ns">
    <!-- Generator: Sketch 3.3.3 (12072) - http://www.bohemiancoding.com/sketch -->
    <title>call</title>
    <desc>Created with Sketch.</desc>
    <defs></defs>
    <g id="Welcome" stroke="none" stroke-width="1" fill="none" fill-rule="evenodd" sketch:type="MSPage">
        <g id="Dealers" sketch:type="MSArtboardGroup" transform="translate(-154.000000, -972.000000)" fill="#1D68B8">
            <g id="Group" sketch:type="MSLayerGroup" transform="translate(154.000000, 857.000000)">
                <g id="call" transform="translate(0.000000, 115.000000)" sketch:type="MSShapeGroup">
                    <path d="M2.4,5.2 C3.33333333,7.06666667 4.93333333,8.6 6.8,9.6 L8.26666667,8.13333333 C8.46666667,7.93333333 8.73333333,7.86666667 8.93333333,8 C9.66666667,8.26666667 10.4666667,8.4 11.3333333,8.4 C11.7333333,8.4 12,8.66666667 12,9.06666667 L12,11.3333333 C12,11.7333333 11.7333333,12 11.3333333,12 C5.06666667,12 0,6.93333333 0,0.666666667 C0,0.266666667 0.266666667,0 0.666666667,0 L3,0 C3.4,0 3.66666667,0.266666667 3.66666667,0.666666667 C3.66666667,1.46666667 3.8,2.26666667 4.06666667,3.06666667 C4.13333333,3.26666667 4.06666667,3.53333333 3.93333333,3.73333333 L2.4,5.2 L2.4,5.2 Z" id="Shape"></path>
                </g>
            </g>
        </g>
    </g>
</svg>