<?xml version="1.0" encoding="UTF-8" standalone="no"?>
<svg width="10px" height="15px" viewBox="0 0 10 15" version="1.1" xmlns="http://www.w3.org/2000/svg" xmlns:xlink="http://www.w3.org/1999/xlink" xmlns:sketch="http://www.bohemiancoding.com/sketch/ns">
    <!-- Generator: Sketch 3.3.3 (12072) - http://www.bohemiancoding.com/sketch -->
    <title>Shape Copy 7</title>
    <desc>Created with Sketch.</desc>
    <defs></defs>
    <g id="Welcome" stroke="none" stroke-width="1" fill="none" fill-rule="evenodd" sketch:type="MSPage">
        <g id="Dealers" sketch:type="MSArtboardGroup" transform="translate(-488.000000, -895.000000)" fill="#1D68B8">
            <g id="Group" sketch:type="MSLayerGroup" transform="translate(154.000000, 857.000000)">
                <path d="M339,38 C336.214286,38 334,40.2142857 334,43 C334,46.7142857 339,52.2857143 339,52.2857143 C339,52.2857143 344,46.7142857 344,43 C344,40.2142857 341.785714,38 339,38 L339,38 Z M339,44.7857143 C338,44.7857143 337.214286,44 337.214286,43 C337.214286,42 338,41.2142857 339,41.2142857 C340,41.2142857 340.785714,42 340.785714,43 C340.785714,44 340,44.7857143 339,44.7857143 L339,44.7857143 Z" id="Shape-Copy-7" sketch:type="MSShapeGroup"></path>
            </g>
        </g>
    </g>
</svg>